<svg width="37" height="34" viewBox="0 0 37 34" fill="none" xmlns="http://www.w3.org/2000/svg">
<g filter="url(#filter0_d)">
<path d="M32.6318 6.40034C32.4989 6.20833 32.3215 6.05139 32.1147 5.94297C31.9079 5.83454 31.6779 5.77786 31.4444 5.77778H11.7032L10.0363 1.77667C9.81777 1.24977 9.44767 0.799633 8.97297 0.483333C8.49826 0.167032 7.94032 -0.00118595 7.36989 6.29379e-06H4V2.88889H7.36989L14.2223 19.3339C14.3321 19.597 14.5172 19.8217 14.7545 19.9798C14.9917 20.1379 15.2705 20.2222 15.5555 20.2222H27.1111C27.7134 20.2222 28.2522 19.8481 28.4645 19.2862L32.7979 7.73067C32.8798 7.51201 32.9074 7.27676 32.8785 7.04506C32.8496 6.81337 32.7649 6.59214 32.6318 6.40034Z" fill="black"/>
<path d="M16.2777 26.0001C17.4744 26.0001 18.4444 25.03 18.4444 23.8334C18.4444 22.6368 17.4744 21.6667 16.2777 21.6667C15.0811 21.6667 14.1111 22.6368 14.1111 23.8334C14.1111 25.03 15.0811 26.0001 16.2777 26.0001Z" fill="black"/>
<path d="M26.3888 26.0001C27.5854 26.0001 28.5555 25.03 28.5555 23.8334C28.5555 22.6368 27.5854 21.6667 26.3888 21.6667C25.1922 21.6667 24.2222 22.6368 24.2222 23.8334C24.2222 25.03 25.1922 26.0001 26.3888 26.0001Z" fill="black"/>
</g>
<defs>
<filter id="filter0_d" x="0" y="0" width="36.8896" height="34.0001" filterUnits="userSpaceOnUse" color-interpolation-filters="sRGB">
<feFlood flood-opacity="0" result="BackgroundImageFix"/>
<feColorMatrix in="SourceAlpha" type="matrix" values="0 0 0 0 0 0 0 0 0 0 0 0 0 0 0 0 0 0 127 0" result="hardAlpha"/>
<feOffset dy="4"/>
<feGaussianBlur stdDeviation="2"/>
<feComposite in2="hardAlpha" operator="out"/>
<feColorMatrix type="matrix" values="0 0 0 0 0 0 0 0 0 0 0 0 0 0 0 0 0 0 0.25 0"/>
<feBlend mode="normal" in2="BackgroundImageFix" result="effect1_dropShadow"/>
<feBlend mode="normal" in="SourceGraphic" in2="effect1_dropShadow" result="shape"/>
</filter>
</defs>
</svg>
