<svg width="29" height="19" viewBox="0 0 29 19" fill="none" xmlns="http://www.w3.org/2000/svg">
<path d="M28.6318 5.99956C28.4989 5.81958 28.3215 5.67247 28.1147 5.57083C27.9079 5.46919 27.6779 5.41606 27.4444 5.41599H7.70322L6.03633 1.66542C5.81777 1.17151 5.44768 0.749562 4.97297 0.453068C4.49826 0.156573 3.94032 -0.00111168 3.36989 5.89968e-06H0V2.708H3.36989L10.2223 18.1232C10.3321 18.3699 10.5173 18.5806 10.7545 18.7287C10.9917 18.8769 11.2705 18.956 11.5556 18.9559H23.1111C23.7134 18.9559 24.2522 18.6053 24.4646 18.0786L28.7979 7.24659C28.8798 7.04162 28.9074 6.8211 28.8785 6.60392C28.8496 6.38673 28.7649 6.17936 28.6318 5.99956V5.99956Z" fill="black"/>
</svg>
