<svg width="37" height="37" viewBox="0 0 37 37" fill="none" xmlns="http://www.w3.org/2000/svg">
<path fill-rule="evenodd" clip-rule="evenodd" d="M18.5 0C8.28295 0 0 8.28295 0 18.5C0 28.717 8.28295 37 18.5 37C28.717 37 37 28.717 37 18.5C37 8.28295 28.717 0 18.5 0ZM24.7345 14.6436C25.0409 14.3264 25.2104 13.9016 25.2065 13.4606C25.2027 13.0196 25.0258 12.5978 24.714 12.286C24.4022 11.9742 23.9804 11.7973 23.5394 11.7935C23.0984 11.7896 22.6736 11.9591 22.3564 12.2655L18.5 16.1219L14.6436 12.2655C14.4884 12.1049 14.3029 11.9767 14.0977 11.8886C13.8925 11.8005 13.6718 11.7541 13.4485 11.7521C13.2252 11.7502 13.0037 11.7927 12.797 11.8773C12.5903 11.9619 12.4026 12.0867 12.2447 12.2447C12.0867 12.4026 11.9619 12.5903 11.8773 12.797C11.7927 13.0037 11.7502 13.2252 11.7521 13.4485C11.7541 13.6718 11.8005 13.8925 11.8886 14.0977C11.9767 14.3029 12.1049 14.4884 12.2655 14.6436L16.1219 18.5L12.2655 22.3564C12.1049 22.5116 11.9767 22.6971 11.8886 22.9023C11.8005 23.1075 11.7541 23.3282 11.7521 23.5515C11.7502 23.7748 11.7927 23.9963 11.8773 24.203C11.9619 24.4097 12.0867 24.5974 12.2447 24.7553C12.4026 24.9133 12.5903 25.0381 12.797 25.1227C13.0037 25.2073 13.2252 25.2498 13.4485 25.2479C13.6718 25.2459 13.8925 25.1995 14.0977 25.1114C14.3029 25.0233 14.4884 24.8951 14.6436 24.7345L18.5 20.8781L22.3564 24.7345C22.6736 25.0409 23.0984 25.2104 23.5394 25.2065C23.9804 25.2027 24.4022 25.0258 24.714 24.714C25.0258 24.4022 25.2027 23.9804 25.2065 23.5394C25.2104 23.0984 25.0409 22.6736 24.7345 22.3564L20.8781 18.5L24.7345 14.6436Z" fill="#626262"/>
</svg>
