<svg width="131" height="131" viewBox="0 0 131 131" fill="none" xmlns="http://www.w3.org/2000/svg">
<path d="M27.2916 43.6667H103.708" stroke="#626262" stroke-width="10.9167" stroke-linecap="round"/>
<path d="M38.6258 49.5126C38.5726 48.7651 38.6739 48.0145 38.9235 47.3078C39.173 46.6011 39.5654 45.9534 40.0761 45.4049C40.5869 44.8565 41.2052 44.4192 41.8924 44.1201C42.5796 43.8211 43.3211 43.6667 44.0705 43.6667H86.9294C87.6788 43.6667 88.4202 43.8211 89.1075 44.1201C89.7947 44.4192 90.4129 44.8565 90.9237 45.4049C91.4345 45.9534 91.8269 46.6011 92.0764 47.3078C92.3259 48.0145 92.4273 48.7651 92.374 49.5126L87.6962 115.013C87.5982 116.39 86.982 117.679 85.9717 118.619C84.9614 119.56 83.6321 120.083 82.2516 120.083H48.7483C47.3677 120.083 46.0384 119.56 45.0282 118.619C44.0179 117.679 43.4016 116.39 43.3036 115.013L38.6258 49.5126V49.5126Z" stroke="#626262" stroke-width="10.9167"/>
<path d="M65.5 27.2917V16.3751C65.5 14.9274 66.0751 13.5391 67.0987 12.5155C68.1223 11.4918 69.5107 10.9167 70.9583 10.9167H79.1458" stroke="#626262" stroke-width="10.9167" stroke-linecap="round"/>
<path d="M40.1787 31.8522C40.3912 30.5782 41.0486 29.4208 42.034 28.5857C43.0194 27.7507 44.269 27.2922 45.5606 27.2917H85.4392C86.7313 27.2916 87.9816 27.7498 88.9675 28.5849C89.9535 29.4199 90.6113 30.5777 90.8239 31.8522L92.7916 43.6667H38.2083L40.1787 31.8522Z" stroke="#626262" stroke-width="10.9167"/>
</svg>
