<svg width="34" height="34" viewBox="0 0 34 34" fill="none" xmlns="http://www.w3.org/2000/svg">
<path d="M0 17C0 24.2576 4.54892 30.4541 10.9508 32.8922C10.795 31.5648 10.6292 29.376 10.9862 27.8403C11.2937 26.52 12.971 19.4282 12.971 19.4282C12.971 19.4282 12.4652 18.4152 12.4652 16.915C12.4652 14.5633 13.8281 12.8067 15.5267 12.8067C16.9717 12.8067 17.6687 13.8904 17.6687 15.1895C17.6687 16.6416 16.7436 18.8119 16.2662 20.825C15.8681 22.5094 17.1119 23.8836 18.7722 23.8836C21.7798 23.8836 24.0932 20.7117 24.0932 16.133C24.0932 12.0799 21.1806 9.248 17.0227 9.248C12.2088 9.248 9.38258 12.8591 9.38258 16.592C9.38258 18.0469 9.94217 19.6052 10.642 20.4538C10.7017 20.5179 10.7438 20.5963 10.7644 20.6814C10.785 20.7665 10.7833 20.8555 10.7596 20.9397C10.6307 21.4753 10.3445 22.6242 10.2892 22.8593C10.2142 23.1682 10.0442 23.2347 9.72258 23.0846C7.60892 22.1014 6.28858 19.0117 6.28858 16.5297C6.28858 11.1903 10.166 6.28858 17.4689 6.28858C23.3396 6.28858 27.9027 10.472 27.9027 16.0622C27.9027 21.8946 24.2264 26.5894 19.1207 26.5894C17.4052 26.5894 15.7944 25.6969 15.2419 24.6443C15.2419 24.6443 14.3933 27.8772 14.1879 28.6677C13.7884 30.2033 12.6806 32.147 11.9935 33.2506C13.5773 33.7379 15.2575 34 17 34C26.3882 34 34 26.3882 34 17C34 7.61175 26.3882 0 17 0C7.61175 0 0 7.61175 0 17Z" fill="white"/>
</svg>
