<svg width="115" height="115" viewBox="0 0 115 115" fill="none" xmlns="http://www.w3.org/2000/svg">
<path d="M55.757 92.0539C52.3393 92.0539 49.4194 93.1392 47.0026 95.3044C44.5876 97.4679 43.3729 100.088 43.3729 103.177C43.3729 106.657 44.5948 109.388 47.035 111.376C49.4823 113.363 52.3321 114.366 55.5899 114.366C58.9015 114.366 61.7909 113.377 64.2634 111.417C66.7341 109.448 67.9685 106.704 67.9685 103.175C67.9685 100.086 66.788 97.4661 64.4251 95.3026C62.0622 93.141 59.1764 92.0539 55.7516 92.0539" fill="#626262"/>
<path d="M90.6667 15.4837C87.5222 10.7112 83.0282 6.89461 77.3016 4.12922C71.6073 1.38898 64.975 0 57.5827 0C49.6243 0 42.541 1.66391 36.5395 4.9468C30.5307 8.23508 25.8876 12.4541 22.7395 17.4854C19.577 22.5418 17.9688 27.627 17.9688 32.6043C17.9688 35.2583 19.0756 37.7362 21.2463 39.9643C23.4277 42.2068 26.1409 43.3406 29.3106 43.3406C34.7192 43.3406 38.4046 40.1673 40.2805 33.943C41.9894 28.7949 44.0971 24.8688 46.5337 22.2669C48.8265 19.8159 52.546 18.5725 57.5827 18.5725C61.9275 18.5725 65.3559 19.7908 68.0764 22.301C70.7555 24.7771 72.0601 27.7276 72.0601 31.3213C72.0601 33.1362 71.636 34.7659 70.7861 36.3077C69.8823 37.9248 68.7556 39.4109 67.4385 40.7334C66.0459 42.1277 63.7477 44.2211 60.6068 46.9739C56.9484 50.1813 53.9961 52.9898 51.847 55.3222C49.6009 57.7462 47.7807 60.596 46.4205 63.7891C45.062 67.0037 44.372 70.84 44.372 75.1974C44.372 78.9152 45.4088 81.7938 47.4573 83.7541C49.4841 85.6948 52.0087 86.6831 54.9646 86.6831C60.6158 86.6831 64.1664 83.5942 65.223 77.8155C65.7584 75.4131 66.1645 73.7348 66.4341 72.7806C66.6784 71.9127 67.0324 71.0215 67.487 70.132C67.9291 69.2659 68.628 68.2848 69.5714 67.2121C70.5543 66.0783 71.8822 64.7486 73.5102 63.2626C79.5998 57.8181 83.8961 53.8793 86.2787 51.547C88.7369 49.1445 90.8805 46.2534 92.6505 42.9615C94.4725 39.5923 95.3961 35.623 95.3961 31.1758C95.3997 25.5498 93.8023 20.2652 90.6577 15.4765" fill="#626262"/>
</svg>
