<svg width="48" height="42" viewBox="0 0 48 42" fill="none" xmlns="http://www.w3.org/2000/svg">
<path d="M47.5715 10.3232C47.3508 10.0135 47.056 9.76036 46.7124 9.58548C46.3689 9.4106 45.9867 9.31918 45.5988 9.31905H12.7989L10.0293 2.86562C9.6662 2.01577 9.05129 1.28974 8.26256 0.779574C7.47384 0.269409 6.54682 -0.00191283 5.59905 1.01513e-05H0V4.65953H5.59905L16.9844 31.1839C17.1667 31.6082 17.4744 31.9707 17.8685 32.2257C18.2627 32.4807 18.7258 32.6167 19.1995 32.6167H38.399C39.3998 32.6167 40.2949 32.0133 40.6477 31.107L47.8475 12.4689C47.9836 12.1162 48.0296 11.7368 47.9815 11.3631C47.9334 10.9894 47.7928 10.6325 47.5715 10.3232Z" fill="#DB0006"/>
<path d="M20.3995 41.9357C22.3877 41.9357 23.9994 40.3711 23.9994 38.4411C23.9994 36.511 22.3877 34.9464 20.3995 34.9464C18.4113 34.9464 16.7996 36.511 16.7996 38.4411C16.7996 40.3711 18.4113 41.9357 20.3995 41.9357Z" fill="#DB0006"/>
<path d="M37.1988 41.9357C39.187 41.9357 40.7988 40.3711 40.7988 38.4411C40.7988 36.511 39.187 34.9464 37.1988 34.9464C35.2106 34.9464 33.5989 36.511 33.5989 38.4411C33.5989 40.3711 35.2106 41.9357 37.1988 41.9357Z" fill="#DB0006"/>
</svg>
