<svg width="44" height="42" viewBox="0 0 44 42" fill="none" xmlns="http://www.w3.org/2000/svg">
<path d="M1.3125 14H4.375C4.61563 14 4.8125 13.8031 4.8125 13.5625V3.9375H14.4375C14.6781 3.9375 14.875 3.74063 14.875 3.5V0.4375C14.875 0.196875 14.6781 0 14.4375 0H4.59375C2.5375 0 0.875 1.6625 0.875 3.71875V13.5625C0.875 13.8031 1.07187 14 1.3125 14ZM29.3125 3.9375H38.9375V13.5625C38.9375 13.8031 39.1344 14 39.375 14H42.4375C42.6781 14 42.875 13.8031 42.875 13.5625V3.71875C42.875 1.6625 41.2125 0 39.1562 0H29.3125C29.0719 0 28.875 0.196875 28.875 0.4375V3.5C28.875 3.74063 29.0719 3.9375 29.3125 3.9375ZM14.4375 38.0625H4.8125V28.4375C4.8125 28.1969 4.61563 28 4.375 28H1.3125C1.07187 28 0.875 28.1969 0.875 28.4375V38.2812C0.875 40.3375 2.5375 42 4.59375 42H14.4375C14.6781 42 14.875 41.8031 14.875 41.5625V38.5C14.875 38.2594 14.6781 38.0625 14.4375 38.0625ZM42.4375 28H39.375C39.1344 28 38.9375 28.1969 38.9375 28.4375V38.0625H29.3125C29.0719 38.0625 28.875 38.2594 28.875 38.5V41.5625C28.875 41.8031 29.0719 42 29.3125 42H39.1562C41.2125 42 42.875 40.3375 42.875 38.2812V28.4375C42.875 28.1969 42.6781 28 42.4375 28ZM43.3125 19.0312H0.4375C0.196875 19.0312 0 19.2281 0 19.4688V22.5312C0 22.7719 0.196875 22.9688 0.4375 22.9688H43.3125C43.5531 22.9688 43.75 22.7719 43.75 22.5312V19.4688C43.75 19.2281 43.5531 19.0312 43.3125 19.0312Z" fill="#DB0006"/>
</svg>
