<svg width="34" height="34" viewBox="0 0 34 34" fill="none" xmlns="http://www.w3.org/2000/svg">
<path d="M8.25758 5.76646C7.40757 7.78841 7.74332 11.4111 7.87932 13.9445C6.96131 14.4846 5.78262 13.5368 5.11536 13.5368C4.42118 13.5368 3.59241 14.0212 3.46207 14.7434C3.36857 15.2639 3.58816 16.0221 5.16352 16.6826C5.7727 16.9383 7.22198 17.2392 7.55774 18.0787C8.02949 19.2581 5.13519 24.7027 0.590435 25.497C0.418849 25.5271 0.263787 25.6235 0.155015 25.7676C0.0462433 25.9117 -0.00857243 26.0934 0.00109057 26.2778C0.0804254 27.7446 3.17732 28.3193 4.55009 28.545C4.69035 28.7465 4.80368 29.5981 4.9836 30.2465C5.06435 30.5368 5.27261 30.8843 5.80812 30.8843C6.50655 30.8843 7.66682 30.3127 9.68703 30.6677C11.6676 31.0182 13.5291 34 17.1034 34C20.4256 34 22.4075 31.0047 24.3144 30.6677C25.418 30.4736 26.3658 30.5353 27.4254 30.755C28.155 30.9069 28.8096 30.9912 29.0178 30.2299C29.2006 29.5725 29.3125 28.7375 29.4499 28.5404C30.8099 28.3163 33.921 27.7431 33.9989 26.2763C34.0086 26.0919 33.9538 25.9102 33.845 25.7661C33.7362 25.622 33.5812 25.5256 33.4096 25.4955C28.9413 24.7132 25.9592 19.2852 26.4423 18.0772C26.7766 17.2392 28.216 16.9413 28.8365 16.6811C29.9897 16.1981 30.5677 15.6039 30.5549 14.9164C30.5393 14.0363 29.542 13.5112 28.8081 13.5112C28.0615 13.5112 26.9891 14.45 26.1207 13.9415C26.2567 11.387 26.591 7.78089 25.7424 5.76044C24.1345 1.93469 20.5573 0 16.9816 0C13.4285 0 9.87828 1.90761 8.25758 5.76646Z" fill="white"/>
</svg>
