<svg width="22" height="23" viewBox="0 0 22 23" fill="none" xmlns="http://www.w3.org/2000/svg">
<path d="M11 0C9.5 0 8.32813 0.604663 7.48438 1.81399C6.64063 3.02331 6.21875 4.5692 6.21875 6.45164C6.20833 8.79043 6.89583 10.6443 8.28125 12.0134C8.45833 12.1959 8.52083 12.4298 8.46875 12.715L8.10938 13.5365C7.99479 13.8103 7.82552 14.0242 7.60156 14.1782C7.3776 14.3322 6.90625 14.5518 6.1875 14.8371C6.15625 14.8485 5.4974 15.0823 4.21094 15.5387C2.92448 15.995 2.23958 16.246 2.15625 16.2917C1.28125 16.691 0.708333 17.1074 0.4375 17.5409C0.145833 18.2597 0 20.0794 0 23H22C22 20.0794 21.8542 18.2597 21.5625 17.5409C21.2917 17.1074 20.7188 16.691 19.8438 16.2917C19.7604 16.246 19.0755 15.995 17.7891 15.5387C16.5026 15.0823 15.8438 14.8485 15.8125 14.8371C15.0938 14.5518 14.6224 14.3322 14.3984 14.1782C14.1745 14.0242 14.0052 13.8103 13.8906 13.5365L13.5313 12.715C13.4792 12.4298 13.5417 12.1959 13.7188 12.0134C15.1042 10.6443 15.7917 8.79043 15.7813 6.45164C15.7813 4.5692 15.3594 3.02331 14.5156 1.81399C13.6719 0.604663 12.5 0 11 0Z" fill="black"/>
</svg>
