<svg width="34" height="34" viewBox="0 0 34 34" fill="none" xmlns="http://www.w3.org/2000/svg">
<path d="M34 16.8535C34 16.7384 34 16.6076 33.9962 16.4558C33.9924 16.032 33.9848 15.5559 33.9772 15.0483C33.9469 13.5885 33.8937 12.1339 33.8103 10.763C33.6964 8.87411 33.5295 7.29917 33.3018 6.11665C33.0615 4.88259 32.5906 3.7571 31.936 2.85267C31.2814 1.94825 30.4661 1.29656 29.5717 0.962757C28.4978 0.565097 26.3955 0.319175 23.4357 0.167436C22.0279 0.0941827 20.5214 0.0470911 19.015 0.0209292C18.4875 0.0104644 17.998 0.00523238 17.5578 0H16.4422C16.002 0.00523238 15.5125 0.0104644 14.985 0.0209292C13.4786 0.0470911 11.9721 0.0941827 10.5643 0.167436C7.60446 0.324407 5.49844 0.570329 4.42835 0.962757C3.53358 1.29574 2.71799 1.94715 2.06331 2.85171C1.40864 3.75626 0.937884 4.88219 0.698214 6.11665C0.466741 7.29917 0.303571 8.87411 0.189732 10.763C0.10625 12.1339 0.0531249 13.5885 0.0227678 15.0483C0.0113839 15.5559 0.00758923 16.032 0.00379459 16.4558C0.00379459 16.6076 0 16.7384 0 16.8535V17.1465C0 17.2616 -5.79582e-08 17.3924 0.00379459 17.5442C0.00758923 17.968 0.0151785 18.4441 0.0227678 18.9517C0.0531249 20.4115 0.10625 21.8661 0.189732 23.237C0.303571 25.1259 0.470536 26.7008 0.698214 27.8833C1.18393 30.3897 2.61071 32.3675 4.42835 33.0372C5.49844 33.4349 7.60446 33.6808 10.5643 33.8326C11.9721 33.9058 13.4786 33.9529 14.985 33.9791C15.5125 33.9895 16.002 33.9948 16.4422 34H17.5578C17.998 33.9948 18.4875 33.9895 19.015 33.9791C20.5214 33.9529 22.0279 33.9058 23.4357 33.8326C26.3955 33.6756 28.5016 33.4297 29.5717 33.0372C31.3893 32.3675 32.8161 30.3949 33.3018 27.8833C33.5333 26.7008 33.6964 25.1259 33.8103 23.237C33.8937 21.8661 33.9469 20.4115 33.9772 18.9517C33.9886 18.4441 33.9924 17.968 33.9962 17.5442C33.9962 17.3924 34 17.2616 34 17.1465V16.8535ZM31.2679 17.1256C31.2679 17.2355 31.2679 17.3558 31.2641 17.4971C31.2603 17.9052 31.2527 18.3552 31.2451 18.8418C31.2185 20.2336 31.1654 21.6254 31.0857 22.9178C30.9833 24.6026 30.8391 25.984 30.6607 26.9101C30.4254 28.1188 29.7348 29.0763 28.8621 29.3955C28.0652 29.6885 26.0578 29.924 23.3295 30.0652C21.9482 30.1385 20.4607 30.1856 18.977 30.2118C18.4571 30.2222 17.9752 30.2274 17.5426 30.2274H16.4574L15.023 30.2118C13.5393 30.1856 12.0556 30.1385 10.6705 30.0652C7.94219 29.9187 5.93103 29.6885 5.13795 29.3955C4.26518 29.0711 3.57455 28.1188 3.33929 26.9101C3.16094 25.984 3.01674 24.6026 2.91429 22.9178C2.8346 21.6254 2.78527 20.2336 2.75491 18.8418C2.74353 18.3552 2.73973 17.9 2.73594 17.4971C2.73594 17.3558 2.73214 17.2302 2.73214 17.1256V16.8744C2.73214 16.7645 2.73214 16.6442 2.73594 16.5029C2.73973 16.0948 2.74732 15.6448 2.75491 15.1582C2.78147 13.7664 2.8346 12.3746 2.91429 11.0822C3.01674 9.39735 3.16094 8.016 3.33929 7.08987C3.57455 5.88119 4.26518 4.92367 5.13795 4.60449C5.93482 4.31148 7.94219 4.07602 10.6705 3.93475C12.0518 3.86149 13.5393 3.8144 15.023 3.78824C15.5429 3.77778 16.0248 3.77255 16.4574 3.77255H17.5426L18.977 3.78824C20.4607 3.8144 21.9444 3.86149 23.3295 3.93475C26.0578 4.08125 28.069 4.31148 28.8621 4.60449C29.7348 4.9289 30.4254 5.88119 30.6607 7.08987C30.8391 8.016 30.9833 9.39735 31.0857 11.0822C31.1654 12.3746 31.2147 13.7664 31.2451 15.1582C31.2565 15.6448 31.2603 16.1 31.2641 16.5029C31.2641 16.6442 31.2679 16.7698 31.2679 16.8744V17.1256ZM13.6228 24.0114L22.4263 16.9477L13.6228 9.98861V24.0114Z" fill="white"/>
</svg>
